<svg xmlns="http://www.w3.org/2000/svg" viewBox="0 0 512 512" fill="none">
  <defs>
    <linearGradient id="bg-gradient" x1="0%" y1="0%" x2="100%" y2="100%">
      <stop offset="0%" style="stop-color:#6366f1"/>
      <stop offset="100%" style="stop-color:#8b5cf6"/>
    </linearGradient>
    <linearGradient id="accent-gradient" x1="0%" y1="0%" x2="100%" y2="100%">
      <stop offset="0%" style="stop-color:#a5b4fc"/>
      <stop offset="100%" style="stop-color:#c4b5fd"/>
    </linearGradient>
  </defs>

  <!-- Background -->
  <rect width="512" height="512" rx="108" fill="url(#bg-gradient)"/>

  <!-- Letter B stylized -->
  <path d="M160 128h80c44.18 0 80 35.82 80 80 0 26.51-12.95 50-32.84 64.53C310.86 286.04 328 314.49 328 348c0 52.93-42.98 96-96 96h-72c-17.67 0-32-14.33-32-32V160c0-17.67 14.33-32 32-32zm32 56v72h48c22.09 0 40-17.91 40-40s-17.91-40-40-40h-48zm0 120v88h56c30.93 0 56-25.07 56-56s-25.07-56-56-56h-56z" fill="white"/>

  <!-- Sparkle accent (AI indicator) -->
  <circle cx="380" cy="132" r="24" fill="url(#accent-gradient)"/>
  <path d="M380 100v64M348 132h64" stroke="white" stroke-width="8" stroke-linecap="round"/>
</svg>
